# xmcd
#
# Track frame offsets: 
#        183
#        7293
#        48133
#        72290
#        111880
#        150390
#        190925
#
# Disc length: 2883 seconds
#
# Revision: 3
# Processed by: cddbd v1.5.2PL0 Copyright (c) Steve Scherf et al.
# Submitted via: ExactAudioCopy v1.0b1
#
DISCID=550b4107
DTITLE=Bill Evans - Live In Paris 1972 Vol. 1
DYEAR=1988
DGENRE=Jazz
TTITLE0=Intro
TTITLE1=Re Person I Knew
TTITLE2=Turn Out The Stars
TTITLE3=Gloria's Step
TTITLE4=Two Lonely People
TTITLE5=Waltz For Debby
TTITLE6=What Are You Doing The Rest of Your Life
EXTD=YEAR: 1988
EXTT0=
EXTT1=
EXTT2=
EXTT3=
EXTT4=
EXTT5=
EXTT6=
PLAYORDER=
